<?xml version="1.0" encoding="iso-8859-1"?>
<!-- Generator: Adobe Illustrator 18.0.0, SVG Export Plug-In . SVG Version: 6.00 Build 0)  -->
<!DOCTYPE svg PUBLIC "-//W3C//DTD SVG 1.1//EN" "http://www.w3.org/Graphics/SVG/1.1/DTD/svg11.dtd">
<svg version="1.1" id="Capa_1" xmlns="http://www.w3.org/2000/svg" xmlns:xlink="http://www.w3.org/1999/xlink" x="0px" y="0px"
	 viewBox="0 0 299.467 299.467" fill="#fff" style="enable-background:new 0 0 299.467 299.467;" xml:space="preserve">
<g>
	<path d="M293.588,219.182L195.377,32.308c-8.939-17.009-26.429-27.575-45.644-27.575s-36.704,10.566-45.644,27.575L5.879,219.182
		c-8.349,15.887-7.77,35.295,1.509,50.647c9.277,15.36,26.189,24.903,44.135,24.903h196.422c17.943,0,34.855-9.542,44.133-24.899
		C301.357,254.477,301.936,235.069,293.588,219.182z M266.4,254.319c-3.881,6.424-10.953,10.414-18.456,10.414H51.522
		c-7.505,0-14.576-3.99-18.457-10.417c-3.88-6.419-4.121-14.534-0.63-21.177l98.211-186.876
		c3.737-7.112,11.052-11.531,19.087-11.531s15.35,4.418,19.087,11.531l98.211,186.876
		C270.522,239.782,270.281,247.897,266.4,254.319z"/>
	<polygon points="144.037,201.424 155.429,201.424 166.545,87.288 132.92,87.288 	"/>
	<path d="M149.733,212.021c-8.98,0-16.251,7.272-16.251,16.252c0,8.971,7.271,16.251,16.251,16.251
		c8.979,0,16.251-7.28,16.251-16.251C165.984,219.294,158.713,212.021,149.733,212.021z"/>
</g>
</svg>
