<?xml version="1.0" encoding="iso-8859-1"?>
<!-- Generator: Adobe Illustrator 19.0.0, SVG Export Plug-In . SVG Version: 6.00 Build 0)  -->
<svg version="1.1" id="Layer_1" xmlns="http://www.w3.org/2000/svg" xmlns:xlink="http://www.w3.org/1999/xlink" x="0px" y="0px"
	 viewBox="0 0 321.493 321.493" style="enable-background:new 0 0 321.493 321.493;" xml:space="preserve">
<g>
	<g>
		<path d="M0,0v321.493h321.493V0H0z M307.627,307.627H13.867V67.413h293.76V307.627z M307.627,53.547H13.867v-39.68h293.76V53.547z
			"/>
	</g>
</g>
<g>
	<g>
		<rect x="26.987" y="26.773" width="13.44" height="13.867"/>
	</g>
</g>
<g>
	<g>
		<rect x="53.76" y="26.773" width="13.333" height="13.867"/>
	</g>
</g>
<g>
	<g>
		<rect x="80.533" y="26.773" width="13.333" height="13.867"/>
	</g>
</g>
<g>
	<g>
		<path d="M48.533,93.653v187.733h224.32V93.653H48.533z M258.987,267.52H62.4v-26.773l38.827-38.827l32.107,32l48-48l29.76,29.653
			l47.893-47.787V267.52z M258.987,148.16l-47.893,47.787l-29.76-29.653l-48,48l-32.107-32L62.4,221.12v-113.6h196.587V148.16z"/>
	</g>
</g>
<g>
	<g>
		<path d="M110.4,121.067c-13.973,0-25.28,11.307-25.28,25.28c0,13.973,11.307,25.28,25.28,25.28c13.973,0,25.28-11.307,25.28-25.28
			C135.68,132.373,124.373,121.067,110.4,121.067z M110.4,157.76c-6.293,0-11.413-5.12-11.413-11.413
			c0-6.293,5.12-11.413,11.413-11.413s11.413,5.12,11.413,11.413C121.813,152.64,116.693,157.76,110.4,157.76z"/>
	</g>
</g>
<g>
</g>
<g>
</g>
<g>
</g>
<g>
</g>
<g>
</g>
<g>
</g>
<g>
</g>
<g>
</g>
<g>
</g>
<g>
</g>
<g>
</g>
<g>
</g>
<g>
</g>
<g>
</g>
<g>
</g>
</svg>
